<svg clip-rule="evenodd" fill-rule="evenodd" height="32" image-rendering="optimizeQuality" shape-rendering="geometricPrecision" text-rendering="geometricPrecision" viewBox="0 0 18062 18062"  xmlns="http://www.w3.org/2000/svg"><g id="Layer_x0020_1"><path d="m7808 2322c-170 0-307-137-307-306v-1449c0-169 137-306 307-306 169 0 306 137 306 306v1449c0 169-137 306-306 306z" fill="#333"/><path d="m11169 2322c-170 0-307-137-307-306v-1449c0-169 137-306 307-306 169 0 306 137 306 306v1449c0 169-137 306-306 306z" fill="#333"/><path d="m6974 8090c1150-1055 593-2080 6-3161-278-511-540-993-611-1474-87-589 139-1082 671-1466 260-187 542-282 839-282 526 0 1066 301 1609 896 543-595 1083-896 1609-896 297 0 580 95 839 282 532 384 758 877 671 1466-71 481-333 963-610 1474-573 1054-1116 2054-78 3081 79 79 168 158 267 237l3 3c274 225 532 543 772 912 826 1275 1428 3170 1687 4073 87 307 156 596 223 876 201 839 374 1564 959 2367 49 68 68 152 54 234s-61 154-130 201c-1248 843-4055 1143-6266 1143s-5018-300-6265-1143c-69-47-116-119-131-201-14-82 5-166 54-233 585-804 758-1529 959-2368 67-280 136-569 224-876 312-1092 1129-3639 2235-4779 73-75 148-144 223-206 1-1 3-2 4-3 65-52 126-105 183-157z" fill="#1aa1ff"/><path d="m12513 17869c-202 26-406 50-611 70-87-2334-1150-6186-1161-6221-50-161 41-333 203-383s333 41 383 202c44 144 1084 3916 1186 6332z" fill="#1583ff"/><path d="m7068 17938c-205-20-409-44-610-70 117-2423 1147-6188 1191-6331 50-161 222-252 384-202 161 50 252 222 202 383-10 35-1063 3878-1167 6220z" fill="#1583ff"/><g fill="#ffa721"><path d="m2840 4969c-117 0-225-67-276-173l-660-1372-1372-660c-106-51-173-159-173-276 0-118 67-226 173-277l1372-660 660-1372c51-106 159-173 276-173 118 0 226 67 277 173l660 1372 1372 660c106 51 173 159 173 277 0 117-67 225-173 276l-1372 660-660 1372c-51 106-159 173-277 173z"/><path d="m15800 8409c-118 0-226-67-277-173l-539-1120-1119-539c-107-51-174-159-174-276 0-118 67-225 174-277l1119-539 539-1119c51-106 159-174 277-174 117 0 225 67 276 174l539 1119 1120 539c106 51 173 159 173 277 0 117-67 225-173 276l-1120 539-539 1120c-51 106-159 173-276 173z"/><path d="m2263 13261c-118 0-225-67-277-173l-539-1120-1119-539c-106-51-174-159-174-276 0-118 68-225 174-277l1119-539 539-1119c52-106 159-174 277-174s225 68 276 174l539 1119 1120 539c106 52 173 159 173 277 0 117-67 225-173 276l-1120 539-539 1120c-51 106-159 173-276 173z"/></g></g></svg>